<svg width="160" height="216" viewBox="0 0 160 216" fill="none" xmlns="http://www.w3.org/2000/svg">
<path d="M101 80H152C154.122 80 156.157 79.1572 157.657 77.6569C159.157 76.1566 160 74.1218 160 72V8.00002C160 5.87829 159.157 3.84346 157.657 2.34317C156.157 0.842876 154.122 2.14517e-05 152 2.14517e-05H8C6.37345 -0.00374436 4.7844 0.488385 3.44469 1.4108C2.10498 2.33322 1.07827 3.64209 0.501436 5.16293C-0.0753946 6.68376 -0.174939 8.3443 0.216074 9.92315C0.607088 11.502 1.47008 12.9242 2.69 14L59 64H8C5.87827 64 3.84344 64.8429 2.34315 66.3432C0.842855 67.8435 -1.64844e-06 69.8783 -1.64844e-06 72V136C-0.000828009 137.051 0.2054 138.092 0.606905 139.063C1.00841 140.034 1.59732 140.917 2.34 141.66L74.34 213.66C75.4588 214.78 76.8849 215.543 78.4375 215.852C79.9902 216.161 81.5997 216.003 83.0623 215.397C84.5249 214.791 85.7748 213.765 86.6538 212.448C87.5327 211.131 88.0012 209.583 88 208V144H152C153.623 143.996 155.207 143.498 156.54 142.572C157.873 141.647 158.894 140.337 159.466 138.818C160.037 137.299 160.134 135.642 159.742 134.067C159.349 132.492 158.487 131.074 157.27 130L101 80Z" fill="#E11D48"/>
</svg>
