<svg width="22" height="22" viewBox="0 0 22 22" fill="none" xmlns="http://www.w3.org/2000/svg">
<path d="M4.9122 13.7707C4.9122 14.207 4.7828 14.6335 4.54038 14.9963C4.29796 15.3591 3.95339 15.6418 3.55027 15.8087C3.14715 15.9757 2.70358 16.0193 2.27566 15.9341C1.84773 15.8489 1.45469 15.6388 1.14622 15.3302C0.837762 15.0216 0.627742 14.6285 0.542726 14.2005C0.457711 13.7726 0.50152 13.329 0.668611 12.9259C0.835703 12.5229 1.11857 12.1784 1.48144 11.9362C1.84431 11.6939 2.27088 11.5647 2.7072 11.5648H4.9122V13.7707ZM6.02345 13.7707C6.02345 13.1855 6.2559 12.6244 6.66966 12.2106C7.08343 11.7968 7.64461 11.5644 8.22976 11.5644C8.81491 11.5644 9.3761 11.7968 9.78986 12.2106C10.2036 12.6244 10.4361 13.1855 10.4361 13.7707V19.2946C10.4361 19.8796 10.2037 20.4407 9.78999 20.8544C9.37631 21.268 8.81523 21.5004 8.2302 21.5004C7.64516 21.5004 7.08409 21.268 6.67041 20.8544C6.25673 20.4407 6.02432 19.8796 6.02432 19.2946L6.02345 13.7707ZM8.2302 4.9122C7.79388 4.9122 7.36736 4.7828 7.00459 4.54038C6.64182 4.29796 6.35908 3.95339 6.19215 3.55027C6.02522 3.14715 5.98159 2.70358 6.06677 2.27566C6.15196 1.84773 6.36213 1.45469 6.67072 1.14622C6.9793 0.837762 7.37243 0.627742 7.80039 0.542726C8.22835 0.457711 8.6719 0.50152 9.07496 0.668611C9.47801 0.835703 9.82246 1.11857 10.0647 1.48144C10.307 1.84431 10.4362 2.27088 10.4361 2.7072V4.9122H8.2302ZM8.2302 6.02345C8.81535 6.02345 9.37653 6.2559 9.7903 6.66966C10.2041 7.08343 10.4365 7.64461 10.4365 8.22976C10.4365 8.81491 10.2041 9.3761 9.7903 9.78986C9.37653 10.2036 8.81535 10.4361 8.2302 10.4361H2.70545C2.12041 10.4361 1.55934 10.2037 1.14566 9.78999C0.731977 9.37631 0.499573 8.81523 0.499573 8.2302C0.499573 7.64516 0.731977 7.08409 1.14566 6.67041C1.55934 6.25673 2.12041 6.02432 2.70545 6.02432L8.2302 6.02345ZM17.0887 8.2302C17.0887 7.79388 17.2181 7.36736 17.4605 7.00459C17.7029 6.64182 18.0475 6.35908 18.4506 6.19215C18.8537 6.02522 19.2973 5.98159 19.7252 6.06677C20.1532 6.15196 20.5462 6.36213 20.8547 6.67072C21.1631 6.9793 21.3732 7.37243 21.4582 7.80039C21.5432 8.22835 21.4994 8.6719 21.3323 9.07496C21.1652 9.47801 20.8823 9.82246 20.5195 10.0647C20.1566 10.307 19.73 10.4362 19.2937 10.4361H17.0887V8.2302ZM15.9774 8.2302C15.9774 8.81535 15.745 9.37653 15.3312 9.7903C14.9175 10.2041 14.3563 10.4365 13.7711 10.4365C13.186 10.4365 12.6248 10.2041 12.211 9.7903C11.7973 9.37653 11.5648 8.81535 11.5648 8.2302V2.70545C11.5648 2.12041 11.7972 1.55934 12.2109 1.14566C12.6246 0.731977 13.1857 0.499573 13.7707 0.499573C14.3557 0.499573 14.9168 0.731977 15.3305 1.14566C15.7442 1.55934 15.9766 2.12041 15.9766 2.70545L15.9774 8.2302ZM13.7707 17.0887C14.207 17.0887 14.6335 17.2181 14.9963 17.4605C15.3591 17.7029 15.6418 18.0475 15.8087 18.4506C15.9757 18.8537 16.0193 19.2973 15.9341 19.7252C15.8489 20.1532 15.6388 20.5462 15.3302 20.8547C15.0216 21.1631 14.6285 21.3732 14.2005 21.4582C13.7726 21.5432 13.329 21.4994 12.9259 21.3323C12.5229 21.1652 12.1784 20.8823 11.9362 20.5195C11.6939 20.1566 11.5647 19.73 11.5648 19.2937V17.0887H13.7707ZM13.7707 15.9774C13.1855 15.9774 12.6244 15.745 12.2106 15.3312C11.7968 14.9175 11.5644 14.3563 11.5644 13.7711C11.5644 13.186 11.7968 12.6248 12.2106 12.211C12.6244 11.7973 13.1855 11.5648 13.7707 11.5648H19.2946C19.8796 11.5648 20.4407 11.7972 20.8544 12.2109C21.268 12.6246 21.5004 13.1857 21.5004 13.7707C21.5004 14.3557 21.268 14.9168 20.8544 15.3305C20.4407 15.7442 19.8796 15.9766 19.2946 15.9766L13.7707 15.9774Z" fill="#E11D48"/>
</svg>
